{"Protocol":0,"Id":"fc411d54bc52d8b583d39e7316dbd823","Path":"/data/movies/Redline.2009.1080p.BluRay.x264-nikt0/Redline.2009.1080p.BluRay.x264-nikt0.mkv","EncoderPath":null,"EncoderProtocol":null,"Type":0,"Container":"mkv","Size":4761463691,"Name":"Redline.2009.1080p.BluRay.x264-nikt0","IsRemote":false,"ETag":"e3f509033c337c60ad1ad08866524872","RunTimeTicks":61686080000,"ReadAtNativeFramerate":false,"IgnoreDts":false,"IgnoreIndex":false,"GenPtsInput":false,"SupportsTranscoding":true,"SupportsDirectStream":true,"SupportsDirectPlay":true,"IsInfiniteStream":false,"UseMostCompatibleTranscodingProfile":false,"RequiresOpening":false,"OpenToken":null,"RequiresClosing":false,"LiveStreamId":null,"BufferMs":null,"RequiresLooping":false,"SupportsProbing":true,"VideoType":0,"IsoType":null,"Video3DFormat":null,"MediaStreams":[{"Codec":"h264","CodecTag":null,"Language":"eng","ColorRange":null,"ColorSpace":"bt709","ColorTransfer":"bt709","ColorPrimaries":"bt709","DvVersionMajor":null,"DvVersionMinor":null,"DvProfile":null,"DvLevel":null,"RpuPresentFlag":null,"ElPresentFlag":null,"BlPresentFlag":null,"DvBlSignalCompatibilityId":null,"Rotation":null,"Comment":null,"TimeBase":"1/1000","CodecTimeBase":null,"Title":null,"VideoRange":1,"VideoRangeType":1,"VideoDoViTitle":null,"AudioSpatialFormat":0,"LocalizedUndefined":null,"LocalizedDefault":null,"LocalizedForced":null,"LocalizedExternal":null,"LocalizedHearingImpaired":null,"DisplayTitle":"1080p H264 SDR","NalLengthSize":"4","IsInterlaced":false,"IsAVC":true,"ChannelLayout":null,"BitRate":6175089,"BitDepth":8,"RefFrames":1,"PacketLength":null,"Channels":null,"SampleRate":null,"IsDefault":true,"IsForced":false,"IsHearingImpaired":false,"Height":1080,"Width":1920,"AverageFrameRate":23.976025,"RealFrameRate":23.976025,"ReferenceFrameRate":23.976025,"Profile":"High","Type":1,"AspectRatio":"16:9","Index":0,"Score":null,"IsExternal":false,"DeliveryMethod":null,"DeliveryUrl":null,"IsExternalUrl":null,"IsTextSubtitleStream":false,"SupportsExternalStream":false,"Path":null,"PixelFormat":"yuv420p","Level":40,"IsAnamorphic":false},{"Codec":"ac3","CodecTag":null,"Language":"eng","ColorRange":null,"ColorSpace":null,"ColorTransfer":null,"ColorPrimaries":null,"DvVersionMajor":null,"DvVersionMinor":null,"DvProfile":null,"DvLevel":null,"RpuPresentFlag":null,"ElPresentFlag":null,"BlPresentFlag":null,"DvBlSignalCompatibilityId":null,"Rotation":null,"Comment":null,"TimeBase":"1/1000","CodecTimeBase":null,"Title":"Surround","VideoRange":0,"VideoRangeType":0,"VideoDoViTitle":null,"AudioSpatialFormat":0,"LocalizedUndefined":null,"LocalizedDefault":"Padr\u00E3o","LocalizedForced":null,"LocalizedExternal":"Externo","LocalizedHearingImpaired":null,"DisplayTitle":"Surround - English - Dolby Digital - 5.1 - Padr\u00E3o","NalLengthSize":null,"IsInterlaced":false,"IsAVC":false,"ChannelLayout":"5.1","BitRate":448000,"BitDepth":null,"RefFrames":null,"PacketLength":null,"Channels":6,"SampleRate":48000,"IsDefault":true,"IsForced":false,"IsHearingImpaired":false,"Height":null,"Width":null,"AverageFrameRate":null,"RealFrameRate":null,"ReferenceFrameRate":null,"Profile":null,"Type":0,"AspectRatio":null,"Index":1,"Score":null,"IsExternal":false,"DeliveryMethod":null,"DeliveryUrl":null,"IsExternalUrl":null,"IsTextSubtitleStream":false,"SupportsExternalStream":false,"Path":null,"PixelFormat":null,"Level":0,"IsAnamorphic":null},{"Codec":"PGSSUB","CodecTag":null,"Language":"eng","ColorRange":null,"ColorSpace":null,"ColorTransfer":null,"ColorPrimaries":null,"DvVersionMajor":null,"DvVersionMinor":null,"DvProfile":null,"DvLevel":null,"RpuPresentFlag":null,"ElPresentFlag":null,"BlPresentFlag":null,"DvBlSignalCompatibilityId":null,"Rotation":null,"Comment":null,"TimeBase":"1/1000","CodecTimeBase":null,"Title":null,"VideoRange":0,"VideoRangeType":0,"VideoDoViTitle":null,"AudioSpatialFormat":0,"LocalizedUndefined":"Indefinido","LocalizedDefault":"Padr\u00E3o","LocalizedForced":"For\u00E7ado","LocalizedExternal":"Externo","LocalizedHearingImpaired":"Defici\u00EAncia Auditiva","DisplayTitle":"English - PGSSUB","NalLengthSize":null,"IsInterlaced":false,"IsAVC":false,"ChannelLayout":null,"BitRate":null,"BitDepth":null,"RefFrames":null,"PacketLength":null,"Channels":null,"SampleRate":null,"IsDefault":false,"IsForced":false,"IsHearingImpaired":false,"Height":1080,"Width":1920,"AverageFrameRate":null,"RealFrameRate":null,"ReferenceFrameRate":null,"Profile":null,"Type":2,"AspectRatio":null,"Index":2,"Score":null,"IsExternal":false,"DeliveryMethod":null,"DeliveryUrl":null,"IsExternalUrl":null,"IsTextSubtitleStream":false,"SupportsExternalStream":true,"Path":null,"PixelFormat":null,"Level":0,"IsAnamorphic":null}],"MediaAttachments":[],"Formats":[],"Bitrate":6623089,"FallbackMaxStreamingBitrate":null,"Timestamp":null,"RequiredHttpHeaders":{},"TranscodingUrl":null,"TranscodingSubProtocol":0,"TranscodingContainer":null,"AnalyzeDurationMs":null,"DefaultAudioStreamIndex":null,"DefaultSubtitleStreamIndex":null,"HasSegments":false}

/usr/lib/jellyfin-ffmpeg/ffmpeg -analyzeduration 200M -probesize 1G -fflags +genpts  -i file:"/data/movies/Redline.2009.1080p.BluRay.x264-nikt0/Redline.2009.1080p.BluRay.x264-nikt0.mkv" -map_metadata -1 -map_chapters -1 -threads 0 -map 0:0 -map 0:1 -map -0:s -codec:v:0 copy -bsf:v h264_mp4toannexb -start_at_zero -codec:a:0 libfdk_aac -ac 1 -ab 128000 -copyts -avoid_negative_ts disabled -max_muxing_queue_size 2048 -f hls -max_delay 5000000 -hls_time 6 -hls_segment_type fmp4 -hls_fmp4_init_filename "89db9b05cbdb2c6a80afd26bf829ad59-1.mp4" -start_number 0 -hls_segment_filename "/config/cache/transcodes/89db9b05cbdb2c6a80afd26bf829ad59%d.mp4" -hls_playlist_type vod -hls_list_size 0 -y "/config/cache/transcodes/89db9b05cbdb2c6a80afd26bf829ad59.m3u8"


ffmpeg version 7.1.2-Jellyfin Copyright (c) 2000-2025 the FFmpeg developers
  built with gcc 13 (Ubuntu 13.3.0-6ubuntu2~24.04)
  configuration: --prefix=/usr/lib/jellyfin-ffmpeg --target-os=linux --extra-version=Jellyfin --disable-doc --disable-ffplay --disable-static --disable-libxcb --disable-sdl2 --disable-xlib --enable-lto=auto --enable-gpl --enable-version3 --enable-shared --enable-gmp --enable-gnutls --enable-chromaprint --enable-opencl --enable-libdrm --enable-libxml2 --enable-libass --enable-libfreetype --enable-libfribidi --enable-libfontconfig --enable-libharfbuzz --enable-libbluray --enable-libmp3lame --enable-libopus --enable-libtheora --enable-libvorbis --enable-libopenmpt --enable-libdav1d --enable-libsvtav1 --enable-libwebp --enable-libvpx --enable-libx264 --enable-libx265 --enable-libzvbi --enable-libzimg --enable-libfdk-aac --arch=arm64 --cross-prefix=/usr/bin/aarch64-linux-gnu- --toolchain=hardened --enable-cross-compile --enable-rkmpp --enable-rkrga --enable-ffnvcodec --enable-cuda --enable-cuda-llvm --enable-cuvid --enable-nvdec --enable-nvenc
  libavutil      59. 39.100 / 59. 39.100
  libavcodec     61. 19.101 / 61. 19.101
  libavformat    61.  7.100 / 61.  7.100
  libavdevice    61.  3.100 / 61.  3.100
  libavfilter    10.  4.100 / 10.  4.100
  libswscale      8.  3.100 /  8.  3.100
  libswresample   5.  3.100 /  5.  3.100
  libpostproc    58.  3.100 / 58.  3.100
Input #0, matroska,webm, from 'file:/data/movies/Redline.2009.1080p.BluRay.x264-nikt0/Redline.2009.1080p.BluRay.x264-nikt0.mkv':
  Metadata:
    title           : Redline.2009.1080p.BluRay.x264-nikt0
    CREATION_TIME   : 2021-03-28T21:25:25Z
    ENCODER         : Lavf57.7.2
  Duration: 01:42:48.61, start: 0.000000, bitrate: 6175 kb/s
  Stream #0:0(eng): Video: h264 (High), yuv420p(tv, bt709, progressive), 1920x1080 [SAR 1:1 DAR 16:9], 23.98 fps, 23.98 tbr, 1k tbn (default)
      Metadata:
        BPS-eng         : 5756439
        DURATION-eng    : 01:42:08.122000000
        NUMBER_OF_FRAMES-eng: 146928
        NUMBER_OF_BYTES-eng: 4409520315
        _STATISTICS_WRITING_APP-eng: mkvmerge v47.0.0 ('Black Flag') 64-bit
        _STATISTICS_WRITING_DATE_UTC-eng: 2021-03-29 22:01:35
        _STATISTICS_TAGS-eng: BPS DURATION NUMBER_OF_FRAMES NUMBER_OF_BYTES
  Stream #0:1(eng): Audio: ac3, 48000 Hz, 5.1(side), fltp, 448 kb/s (default)
      Metadata:
        title           : Surround
        BPS-eng         : 448000
        DURATION-eng    : 01:42:48.608000000
        NUMBER_OF_FRAMES-eng: 192769
        NUMBER_OF_BYTES-eng: 345442048
        _STATISTICS_WRITING_APP-eng: mkvmerge v47.0.0 ('Black Flag') 64-bit
        _STATISTICS_WRITING_DATE_UTC-eng: 2021-03-29 22:01:35
        _STATISTICS_TAGS-eng: BPS DURATION NUMBER_OF_FRAMES NUMBER_OF_BYTES
  Stream #0:2(eng): Subtitle: hdmv_pgs_subtitle (pgssub), 1920x1080
      Metadata:
        BPS-eng         : 28539
        DURATION-eng    : 01:37:12.494000000
        NUMBER_OF_FRAMES-eng: 1946
        NUMBER_OF_BYTES-eng: 20806872
        _STATISTICS_WRITING_APP-eng: mkvmerge v47.0.0 ('Black Flag') 64-bit
        _STATISTICS_WRITING_DATE_UTC-eng: 2021-03-29 22:01:35
        _STATISTICS_TAGS-eng: BPS DURATION NUMBER_OF_FRAMES NUMBER_OF_BYTES
Stream mapping:
  Stream #0:0 -> #0:0 (copy)
  Stream #0:1 -> #0:1 (ac3 (native) -> aac (libfdk_aac))
Press [q] to stop, [?] for help
[hls @ 0xaaaad2fb84a0] Opening '/config/cache/transcodes/89db9b05cbdb2c6a80afd26bf829ad59-1.mp4' for writing
Output #0, hls, to '/config/cache/transcodes/89db9b05cbdb2c6a80afd26bf829ad59.m3u8':
  Metadata:
    encoder         : Lavf61.7.100
  Stream #0:0: Video: h264 (High), yuv420p(tv, bt709, progressive), 1920x1080 [SAR 1:1 DAR 16:9], q=2-31, 23.98 fps, 23.98 tbr, 16k tbn (default)
  Stream #0:1: Audio: aac, 48000 Hz, mono, s16, 128 kb/s (default)
      Metadata:
        encoder         : Lavc61.19.101 libfdk_aac
      Side data:
        cpb: bitrate max/min/avg: 128000/128000/128000 buffer size: 0 vbv_delay: N/A
[hls @ 0xaaaad2fb84a0] Opening '/config/cache/transcodes/89db9b05cbdb2c6a80afd26bf829ad590.mp4' for writing
[hls @ 0xaaaad2fb84a0] Opening '/config/cache/transcodes/89db9b05cbdb2c6a80afd26bf829ad591.mp4' for writing
frame=  542 fps=0.0 q=-1.0 size=N/A time=00:00:00.00 bitrate=N/A speed=   0x    
[hls @ 0xaaaad2fb84a0] Opening '/config/cache/transcodes/89db9b05cbdb2c6a80afd26bf829ad592.mp4' for writing
[hls @ 0xaaaad2fb84a0] Opening '/config/cache/transcodes/89db9b05cbdb2c6a80afd26bf829ad593.mp4' for writing
frame=  979 fps=978 q=-1.0 size=N/A time=00:00:17.98 bitrate=N/A speed=  18x    
[hls @ 0xaaaad2fb84a0] Opening '/config/cache/transcodes/89db9b05cbdb2c6a80afd26bf829ad594.mp4' for writing
frame= 1285 fps=856 q=-1.0 size=N/A time=00:00:30.78 bitrate=N/A speed=20.5x    
[hls @ 0xaaaad2fb84a0] Opening '/config/cache/transcodes/89db9b05cbdb2c6a80afd26bf829ad595.mp4' for writing
[hls @ 0xaaaad2fb84a0] Opening '/config/cache/transcodes/89db9b05cbdb2c6a80afd26bf829ad596.mp4' for writing
frame= 1581 fps=790 q=-1.0 size=N/A time=00:00:43.22 bitrate=N/A speed=21.6x    
[hls @ 0xaaaad2fb84a0] Opening '/config/cache/transcodes/89db9b05cbdb2c6a80afd26bf829ad597.mp4' for writing
[hls @ 0xaaaad2fb84a0] Opening '/config/cache/transcodes/89db9b05cbdb2c6a80afd26bf829ad598.mp4' for writing
frame= 1791 fps=716 q=-1.0 size=N/A time=00:00:51.84 bitrate=N/A speed=20.7x    
[hls @ 0xaaaad2fb84a0] Opening '/config/cache/transcodes/89db9b05cbdb2c6a80afd26bf829ad599.mp4' for writing
frame= 2050 fps=683 q=-1.0 size=N/A time=00:01:02.78 bitrate=N/A speed=20.9x    
[hls @ 0xaaaad2fb84a0] Opening '/config/cache/transcodes/89db9b05cbdb2c6a80afd26bf829ad5910.mp4' for writing
[hls @ 0xaaaad2fb84a0] Opening '/config/cache/transcodes/89db9b05cbdb2c6a80afd26bf829ad5911.mp4' for writing
[hls @ 0xaaaad2fb84a0] Opening '/config/cache/transcodes/89db9b05cbdb2c6a80afd26bf829ad5912.mp4' for writing
[hls @ 0xaaaad2fb84a0] Opening '/config/cache/transcodes/89db9b05cbdb2c6a80afd26bf829ad5913.mp4' for writing
frame= 2306 fps=658 q=-1.0 size=N/A time=00:01:13.66 bitrate=N/A speed=  21x    
[hls @ 0xaaaad2fb84a0] Opening '/config/cache/transcodes/89db9b05cbdb2c6a80afd26bf829ad5914.mp4' for writing
[hls @ 0xaaaad2fb84a0] Opening '/config/cache/transcodes/89db9b05cbdb2c6a80afd26bf829ad5915.mp4' for writing
[hls @ 0xaaaad2fb84a0] Opening '/config/cache/transcodes/89db9b05cbdb2c6a80afd26bf829ad5916.mp4' for writing
frame= 2666 fps=666 q=-1.0 size=N/A time=00:01:28.44 bitrate=N/A speed=22.1x    
[hls @ 0xaaaad2fb84a0] Opening '/config/cache/transcodes/89db9b05cbdb2c6a80afd26bf829ad5917.mp4' for writing
[hls @ 0xaaaad2fb84a0] Opening '/config/cache/transcodes/89db9b05cbdb2c6a80afd26bf829ad5918.mp4' for writing
frame= 2972 fps=660 q=-1.0 size=N/A time=00:01:41.37 bitrate=N/A speed=22.5x    
[hls @ 0xaaaad2fb84a0] Opening '/config/cache/transcodes/89db9b05cbdb2c6a80afd26bf829ad5919.mp4' for writing
[hls @ 0xaaaad2fb84a0] Opening '/config/cache/transcodes/89db9b05cbdb2c6a80afd26bf829ad5920.mp4' for writing
[hls @ 0xaaaad2fb84a0] Opening '/config/cache/transcodes/89db9b05cbdb2c6a80afd26bf829ad5921.mp4' for writing
frame= 3270 fps=653 q=-1.0 size=N/A time=00:01:53.72 bitrate=N/A speed=22.7x    
[hls @ 0xaaaad2fb84a0] Opening '/config/cache/transcodes/89db9b05cbdb2c6a80afd26bf829ad5922.mp4' for writing
[hls @ 0xaaaad2fb84a0] Opening '/config/cache/transcodes/89db9b05cbdb2c6a80afd26bf829ad5923.mp4' for writing
frame= 3596 fps=653 q=-1.0 size=N/A time=00:02:07.19 bitrate=N/A speed=23.1x    
[hls @ 0xaaaad2fb84a0] Opening '/config/cache/transcodes/89db9b05cbdb2c6a80afd26bf829ad5924.mp4' for writing
[hls @ 0xaaaad2fb84a0] Opening '/config/cache/transcodes/89db9b05cbdb2c6a80afd26bf829ad5925.mp4' for writing
frame= 3915 fps=652 q=-1.0 size=N/A time=00:02:20.37 bitrate=N/A speed=23.4x    
[hls @ 0xaaaad2fb84a0] Opening '/config/cache/transcodes/89db9b05cbdb2c6a80afd26bf829ad5926.mp4' for writing
frame= 4238 fps=651 q=-1.0 size=N/A time=00:02:34.11 bitrate=N/A speed=23.7x    
[hls @ 0xaaaad2fb84a0] Opening '/config/cache/transcodes/89db9b05cbdb2c6a80afd26bf829ad5927.mp4' for writing
[hls @ 0xaaaad2fb84a0] Opening '/config/cache/transcodes/89db9b05cbdb2c6a80afd26bf829ad5928.mp4' for writing
frame= 4478 fps=639 q=-1.0 size=N/A time=00:02:44.05 bitrate=N/A speed=23.4x    
[hls @ 0xaaaad2fb84a0] Opening '/config/cache/transcodes/89db9b05cbdb2c6a80afd26bf829ad5929.mp4' for writing
frame= 4712 fps=628 q=-1.0 size=N/A time=00:02:53.95 bitrate=N/A speed=23.2x    
[hls @ 0xaaaad2fb84a0] Opening '/config/cache/transcodes/89db9b05cbdb2c6a80afd26bf829ad5930.mp4' for writing
[hls @ 0xaaaad2fb84a0] Opening '/config/cache/transcodes/89db9b05cbdb2c6a80afd26bf829ad5931.mp4' for writing
frame= 4910 fps=613 q=-1.0 size=N/A time=00:03:02.08 bitrate=N/A speed=22.7x    
[hls @ 0xaaaad2fb84a0] Opening '/config/cache/transcodes/89db9b05cbdb2c6a80afd26bf829ad5932.mp4' for writing
[hls @ 0xaaaad2fb84a0] Opening '/config/cache/transcodes/89db9b05cbdb2c6a80afd26bf829ad5933.mp4' for writing
frame= 5170 fps=608 q=-1.0 size=N/A time=00:03:12.81 bitrate=N/A speed=22.7x    
[hls @ 0xaaaad2fb84a0] Opening '/config/cache/transcodes/89db9b05cbdb2c6a80afd26bf829ad5934.mp4' for writing
[hls @ 0xaaaad2fb84a0] Opening '/config/cache/transcodes/89db9b05cbdb2c6a80afd26bf829ad5935.mp4' for writing
[hls @ 0xaaaad2fb84a0] Opening '/config/cache/transcodes/89db9b05cbdb2c6a80afd26bf829ad5936.mp4' for writing
frame= 5424 fps=602 q=-1.0 size=N/A time=00:03:23.52 bitrate=N/A speed=22.6x    
[hls @ 0xaaaad2fb84a0] Opening '/config/cache/transcodes/89db9b05cbdb2c6a80afd26bf829ad5937.mp4' for writing
[hls @ 0xaaaad2fb84a0] Opening '/config/cache/transcodes/89db9b05cbdb2c6a80afd26bf829ad5938.mp4' for writing
frame= 5734 fps=603 q=-1.0 size=N/A time=00:03:36.54 bitrate=N/A speed=22.8x    
[hls @ 0xaaaad2fb84a0] Opening '/config/cache/transcodes/89db9b05cbdb2c6a80afd26bf829ad5939.mp4' for writing
[hls @ 0xaaaad2fb84a0] Opening '/config/cache/transcodes/89db9b05cbdb2c6a80afd26bf829ad5940.mp4' for writing
frame= 6042 fps=604 q=-1.0 size=N/A time=00:03:49.33 bitrate=N/A speed=22.9x    
[hls @ 0xaaaad2fb84a0] Opening '/config/cache/transcodes/89db9b05cbdb2c6a80afd26bf829ad5941.mp4' for writing
[hls @ 0xaaaad2fb84a0] Opening '/config/cache/transcodes/89db9b05cbdb2c6a80afd26bf829ad5942.mp4' for writing
frame= 6327 fps=602 q=-1.0 size=N/A time=00:04:01.00 bitrate=N/A speed=22.9x    
[hls @ 0xaaaad2fb84a0] Opening '/config/cache/transcodes/89db9b05cbdb2c6a80afd26bf829ad5943.mp4' for writing
[hls @ 0xaaaad2fb84a0] Opening '/config/cache/transcodes/89db9b05cbdb2c6a80afd26bf829ad5944.mp4' for writing
frame= 6667 fps=606 q=-1.0 size=N/A time=00:04:15.27 bitrate=N/A speed=23.2x    
[hls @ 0xaaaad2fb84a0] Opening '/config/cache/transcodes/89db9b05cbdb2c6a80afd26bf829ad5945.mp4' for writing
[hls @ 0xaaaad2fb84a0] Opening '/config/cache/transcodes/89db9b05cbdb2c6a80afd26bf829ad5946.mp4' for writing
frame= 6969 fps=605 q=-1.0 size=N/A time=00:04:27.88 bitrate=N/A speed=23.3x    
[hls @ 0xaaaad2fb84a0] Opening '/config/cache/transcodes/89db9b05cbdb2c6a80afd26bf829ad5947.mp4' for writing
[hls @ 0xaaaad2fb84a0] Opening '/config/cache/transcodes/89db9b05cbdb2c6a80afd26bf829ad5948.mp4' for writing
frame= 7231 fps=602 q=-1.0 size=N/A time=00:04:38.82 bitrate=N/A speed=23.2x    
[hls @ 0xaaaad2fb84a0] Opening '/config/cache/transcodes/89db9b05cbdb2c6a80afd26bf829ad5949.mp4' for writing
[hls @ 0xaaaad2fb84a0] Opening '/config/cache/transcodes/89db9b05cbdb2c6a80afd26bf829ad5950.mp4' for writing
frame= 7531 fps=602 q=-1.0 size=N/A time=00:04:51.32 bitrate=N/A speed=23.3x    
[hls @ 0xaaaad2fb84a0] Opening '/config/cache/transcodes/89db9b05cbdb2c6a80afd26bf829ad5951.mp4' for writing
[hls @ 0xaaaad2fb84a0] Opening '/config/cache/transcodes/89db9b05cbdb2c6a80afd26bf829ad5952.mp4' for writing
frame= 7805 fps=600 q=-1.0 size=N/A time=00:05:02.92 bitrate=N/A speed=23.3x    
[hls @ 0xaaaad2fb84a0] Opening '/config/cache/transcodes/89db9b05cbdb2c6a80afd26bf829ad5953.mp4' for writing
[hls @ 0xaaaad2fb84a0] Opening '/config/cache/transcodes/89db9b05cbdb2c6a80afd26bf829ad5954.mp4' for writing
frame= 8090 fps=599 q=-1.0 size=N/A time=00:05:14.71 bitrate=N/A speed=23.3x    
[hls @ 0xaaaad2fb84a0] Opening '/config/cache/transcodes/89db9b05cbdb2c6a80afd26bf829ad5955.mp4' for writing
frame= 8361 fps=597 q=-1.0 size=N/A time=00:05:25.97 bitrate=N/A speed=23.3x    
[hls @ 0xaaaad2fb84a0] Opening '/config/cache/transcodes/89db9b05cbdb2c6a80afd26bf829ad5956.mp4' for writing
[hls @ 0xaaaad2fb84a0] Opening '/config/cache/transcodes/89db9b05cbdb2c6a80afd26bf829ad5957.mp4' for writing
[hls @ 0xaaaad2fb84a0] Opening '/config/cache/transcodes/89db9b05cbdb2c6a80afd26bf829ad5958.mp4' for writing
frame= 8639 fps=595 q=-1.0 size=N/A time=00:05:37.55 bitrate=N/A speed=23.3x    
[hls @ 0xaaaad2fb84a0] Opening '/config/cache/transcodes/89db9b05cbdb2c6a80afd26bf829ad5959.mp4' for writing
[hls @ 0xaaaad2fb84a0] Opening '/config/cache/transcodes/89db9b05cbdb2c6a80afd26bf829ad5960.mp4' for writing
[hls @ 0xaaaad2fb84a0] Opening '/config/cache/transcodes/89db9b05cbdb2c6a80afd26bf829ad5961.mp4' for writing
frame= 8942 fps=596 q=-1.0 size=N/A time=00:05:50.33 bitrate=N/A speed=23.3x    

[q] command received. Exiting.

[hls @ 0xaaaad2fb84a0] Opening '/config/cache/transcodes/89db9b05cbdb2c6a80afd26bf829ad5962.mp4' for writing
[out#0/hls @ 0xaaaad31e0290] video:318180KiB audio:6020KiB subtitle:0KiB other streams:0KiB global headers:0KiB muxing overhead: unknown
frame= 9232 fps=591 q=-1.0 Lsize=N/A time=00:06:02.44 bitrate=N/A speed=23.2x    